<svg xmlns="http://www.w3.org/2000/svg" width="36.494" height="31.64" viewBox="0 0 36.494 31.64">
  <path id="immigration-officer" d="M18.7,26.429l.492,3.114,2.619-6.332-3.47,1.008L19.621,25.5Zm17.8-6.372-.019,11.585H27.6a.774.774,0,0,1-.772-.772V19.148h0a.825.825,0,0,1,.816-.733h8.841v.6H27.654a.219.219,0,0,0,0,.438h8.841v.6Zm-6.6,9.878a.309.309,0,1,1,0-.618h3.512a.309.309,0,1,1,0,.618H29.894Zm-1.026-1.321a.309.309,0,0,1,0-.618h5.564a.309.309,0,0,1,0,.618H28.868Zm5.081-3.207.063-.12a2.591,2.591,0,0,0,.254-.838c.006-.055.011-.108.014-.163H33.56a2.6,2.6,0,0,1-.331,1.12h.721Zm-.217.331h-.708a5.278,5.278,0,0,1-.877.95l.059-.011c.084-.017.168-.038.249-.063a2.645,2.645,0,0,0,1.2-.786l.074-.09Zm-2.519.949a5.246,5.246,0,0,1-.876-.949H29.63l.074.09a2.645,2.645,0,0,0,1.205.787,2.316,2.316,0,0,0,.247.063l.057.01Zm-1.8-1.279h.721a2.842,2.842,0,0,1-.232-.547,2.354,2.354,0,0,1-.1-.573h-.721l.014.163a2.574,2.574,0,0,0,.317.957Zm-.332-1.45h.728a2.8,2.8,0,0,1,.366-1.12H29.41l-.065.123A2.563,2.563,0,0,0,29.078,23.96Zm.55-1.45h.753A5.135,5.135,0,0,1,30.793,22c.135-.148.284-.3.446-.445l-.085.016c-.085.017-.168.038-.249.063a2.636,2.636,0,0,0-1.2.786l-.075.091Zm2.495-.954a5.764,5.764,0,0,1,.857.954h.751l-.073-.089c-.041-.047-.085-.094-.131-.14a2.645,2.645,0,0,0-1.074-.647,2.415,2.415,0,0,0-.247-.063l-.082-.015ZM33.95,22.84h-.762a2.807,2.807,0,0,1,.366,1.12h.728A2.6,2.6,0,0,0,33.95,22.84Zm-2.86-1.592a3.018,3.018,0,0,1,1.18,0,2.945,2.945,0,0,1,1.844,1.232c.053.079.1.16.147.243v0a2.893,2.893,0,0,1,.354,1.4c0,.1,0,.2-.014.3a2.876,2.876,0,0,1-.341,1.1c-.044.082-.094.163-.146.242A2.927,2.927,0,0,1,32.27,27a3,3,0,0,1-1.458-.07,2.945,2.945,0,0,1-1.566-1.163q-.079-.118-.148-.243a2.886,2.886,0,0,1-.34-1.1,3,3,0,0,1-.015-.3,2.877,2.877,0,0,1,.356-1.4c.045-.083.094-.163.145-.242s.108-.153.166-.224a2.952,2.952,0,0,1,1.4-.937,2.9,2.9,0,0,1,.281-.072Zm.755.5v.763h.728q-.154-.2-.327-.376C32.123,22.006,31.989,21.877,31.844,21.748Zm0,1.092v1.12h1.38a2.6,2.6,0,0,0-.419-1.12Zm0,1.45v1.12h1a2.365,2.365,0,0,0,.383-1.12Zm0,1.45v.776c.154-.129.3-.26.426-.391a4.921,4.921,0,0,0,.344-.385h-.771Zm-.329.776v-.776h-.771a4.65,4.65,0,0,0,.344.385c.128.13.272.262.427.391Zm0-1.106v-1.12H30.128a2.109,2.109,0,0,0,.108.55,2.739,2.739,0,0,0,.274.57h1Zm0-1.45V22.84h-.96a2.584,2.584,0,0,0-.419,1.12h1.379Zm0-1.45v-.762q-.208.184-.4.386a4.958,4.958,0,0,0-.326.376h.727Zm-4.08-2.483V30.871a.172.172,0,0,0,.17.17h8.268V20.058H27.654a.8.8,0,0,1-.219-.031ZM16.478,29.368l.5-2.9-.957-.959,1.221-1.224L13.93,23.255l2.548,6.113Zm-6-18.971a13.26,13.26,0,0,1,5.21-1.227,3.7,3.7,0,0,0,2.009,1.657A3.832,3.832,0,0,0,19.713,9.17,13.29,13.29,0,0,1,24.829,10.4h.181c.273,0,.184,1.428.218,1.8a.9.9,0,0,1,.555.459,3.579,3.579,0,0,1-.147,2.606l0,.009a3.475,3.475,0,0,1-.626,1.06,1.465,1.465,0,0,1-.7.448c-.048.158-.1.321-.143.483a6.692,6.692,0,0,1-1.1,2.465,5.633,5.633,0,0,1-.413.471q-.151.159-.31.3c.026.276.009,1.4.009,1.756a.568.568,0,0,1,.465-.02c.736.3,1.458.567,2.16.819v8.322H0c.262-6.748,6.125-6.53,12.514-8.986A3.694,3.694,0,0,1,13,22.209v-1.7a.391.391,0,0,1,.043-.175c-.061-.054-.118-.112-.172-.166a7.336,7.336,0,0,1-1.729-3.226l-.1-.3a1.757,1.757,0,0,1-1.2-1.063c-.385-.758-.876-2.714.069-3.307a.832.832,0,0,1,.249-.106c.058-.569-.166-1.793.311-1.775ZM21.569,21.12a7.5,7.5,0,0,1-2.385,1.02,6.652,6.652,0,0,1-4.7-.736c-.236-.124-.471-.259-.71-.411V22.4l3.9,1.207,3.892-1.129V21.12ZM10.132,9.3V7.774L8.9,6.829c-1.767-1.959-1.411-1.9.463-2.428,2.735-.77,4.59-2.433,6.2-3.5,1.828-1.2,2.393-1.2,4.22,0,1.609,1.063,3.467,2.726,6.2,3.5,1.873.526,2.23.468.465,2.428l-1.232.945V9.3a21.84,21.84,0,0,0-5.033-1.261,4.883,4.883,0,0,0,.207-1.867,4.474,4.474,0,0,1-2.706-.87,3.885,3.885,0,0,1-2.7.83,5.328,5.328,0,0,0,.233,1.9A21.719,21.719,0,0,0,10.132,9.3Zm1.761,2.591-.235,1.391a.194.194,0,0,1-.3.132c-.244-.156-.82-.664-1.017-.347-.287.465.055,1.671.279,2.126.441.871.565.418.928.612.215.118.264.408.339.623l.088.264a5.966,5.966,0,0,0,2.146,3.418,6.265,6.265,0,0,0,2.643,1.19,5.677,5.677,0,0,0,2.155-.011,5.933,5.933,0,0,0,2.522-1.173,5.588,5.588,0,0,0,.931-.927,3.734,3.734,0,0,0,.555-.977c.147-.362.264-.753.393-1.192.075-.253.15-.506.23-.759.124-.48.5-.158.822-.514a2.8,2.8,0,0,0,.445-.8c.1-.267.552-1.862.057-2.026-.119-.052-.88.438-1.163.523-.244.068-.252-.192-.264-.348l-.118-1.313a15.743,15.743,0,0,1-11.439.1Z" transform="translate(0 -0.002)" fill="#707070" fill-rule="evenodd"/>
</svg>
