<svg xmlns="http://www.w3.org/2000/svg" width="30.396" height="31.64" viewBox="0 0 30.396 31.64">
  <path id="map-marker-flag" d="M10.457,16.188c9.489.735,9-4.664,19.938-7.245C22.629,2.272,16.576,6.808,10.457,1.47V1.3a1.3,1.3,0,1,0-2.6,0V24.669a1.3,1.3,0,0,0,2.6,0ZM13,19.918a6.557,6.557,0,0,1,3.759,1.853,5.339,5.339,0,0,1,1.612,3.786,4.534,4.534,0,0,1-1.008,2.768,7.472,7.472,0,0,1-2.431,1.983,11.037,11.037,0,0,1-2.719.993,13.929,13.929,0,0,1-5.9.044,11.362,11.362,0,0,1-2.584-.868A6.664,6.664,0,0,1,.5,27.5a4.8,4.8,0,0,1-.418-3.025,5.246,5.246,0,0,1,1.331-2.6,6.415,6.415,0,0,1,3.83-1.934l.251,2.3A4.421,4.421,0,0,0,2.848,23.55a2.856,2.856,0,0,0-.74,1.4,2.279,2.279,0,0,0,.208,1.43A4.561,4.561,0,0,0,4.54,28.337a9.461,9.461,0,0,0,2.147.723,11.962,11.962,0,0,0,2.472.248,11.823,11.823,0,0,0,2.636-.284,9.12,9.12,0,0,0,2.249-.82,5.366,5.366,0,0,0,1.75-1.4,2.1,2.1,0,0,0,.5-1.246,2.931,2.931,0,0,0-.914-2.055,4.539,4.539,0,0,0-2.607-1.27L13,19.918Z" transform="translate(0.001)" fill="#707070" fill-rule="evenodd"/>
</svg>
