<svg xmlns="http://www.w3.org/2000/svg" width="28.578" height="31.64" viewBox="0 0 28.578 31.64">
  <path id="pilot" d="M26.715,28,19.464,25.02l.072-2.833,7.179,2.9v2.907ZM15.1,24.669l.451,2.863,2.408-5.82-3.188.927,1.192,1.179-.85.85Zm-2.037,2.7.456-2.67-.881-.881L13.762,22.7l-3.041-.942,2.343,5.616ZM7.209,10.182l.049-.039h0a.178.178,0,0,1,.16-.2h.142a12.422,12.422,0,0,1,5.1-1.148,1.885,1.885,0,0,0,3.01,0,12.772,12.772,0,0,1,5.081,1.151h.165a.18.18,0,0,1,.18.18.049.049,0,0,1,0,.021h0l.046.031-.052.041-.057.59.085.785a.749.749,0,0,1,.234.108.891.891,0,0,1,.278.314,1.455,1.455,0,0,1,.155.515,2.887,2.887,0,0,1,0,.636v.015a4.514,4.514,0,0,1-.1.615,4.878,4.878,0,0,1-.2.615h0a3.162,3.162,0,0,1-.577.971,1.287,1.287,0,0,1-.644.412l-.051.17c-.026.088-.059.188-.08.276a6.149,6.149,0,0,1-1.009,2.263c-.121.149-.258.3-.381.435-.093.1-.188.188-.286.276a.35.35,0,0,1,0,.075V20.84a.515.515,0,0,1,.427-.021l8.5,3.433a.515.515,0,0,1,.358.492V27.95a5.3,5.3,0,0,1,.608,1.73,4.405,4.405,0,0,1,.237,1.442.515.515,0,0,1-.515.515H.529a.515.515,0,0,1-.515-.487c-.044-.806,0-.479.173-1.334a5.016,5.016,0,0,1,.657-1.751V24.739h0a.515.515,0,0,1,.324-.479l8.58-3.427h.026a.59.59,0,0,1,.1-.031V19.257a.355.355,0,0,1,.036-.16l-.157-.155q-.157-.162-.3-.324h0A4.985,4.985,0,0,1,8.69,17.4c-.193-.461-.355-.922-.53-1.437l-.09-.273a1.071,1.071,0,0,1-.559-.258,2.225,2.225,0,0,1-.541-.718,4.071,4.071,0,0,1-.258-.677,4.79,4.79,0,0,1-.149-.736,2.954,2.954,0,0,1,0-.739,1.463,1.463,0,0,1,.188-.582h0a.948.948,0,0,1,.281-.291.711.711,0,0,1,.232-.1l.064-.657-.07-.67ZM25.492,25.331a.744.744,0,1,1-.528.217A.747.747,0,0,1,25.492,25.331Zm-22.421,0a.76.76,0,1,1-.008,0Zm6-3.118.072,2.807L1.879,28V25.087Zm8.67-2.421c-.136.082-.337.2-.515.3a2.423,2.423,0,0,1-.322.16,6.533,6.533,0,0,1-1.36.476,5.485,5.485,0,0,1-1.36.149,5.426,5.426,0,0,1-1.089-.134H13.08a6.952,6.952,0,0,1-1.092-.345,7.673,7.673,0,0,1-.76-.345c-.216-.111-.433-.237-.651-.376v1.288l3.584,1.115,3.577-1.03V19.792ZM7.232,8.931v-1.4L6.1,6.273c-1.62-1.8-1.288-1.746.427-2.233,2.513-.7,4.215-2.24,5.7-3.211C13.9-.28,14.419-.28,16.1.83c1.481.971,3.183,2.516,5.7,3.211,1.723.487,2.047.43.427,2.233L21.091,7.533v1.4a19.956,19.956,0,0,0-5.06-1.208.628.628,0,0,0,0-.07,1.885,1.885,0,1,0-3.77,0v.07A19.992,19.992,0,0,0,7.23,8.928Zm1.62,2.382L8.636,12.6a.178.178,0,0,1-.206.147.142.142,0,0,1-.067-.026l-.639-.42H7.691c-.108-.018-.188-.026-.258.093a.726.726,0,0,0-.082.3,2.3,2.3,0,0,0,0,.515,3.548,3.548,0,0,0,.116.595,3.142,3.142,0,0,0,.209.541,1.439,1.439,0,0,0,.332.461.258.258,0,0,0,.224.072h0a.394.394,0,0,1,.283.033.407.407,0,0,1,.2.227h0l.113.332.082.258a6.651,6.651,0,0,0,1.13,2.348h0a5.3,5.3,0,0,0,.832.773,6.291,6.291,0,0,0,1.03.636h.015c.07.036.142.07.214.1l.232.093h0a5.693,5.693,0,0,0,.924.258,5.1,5.1,0,0,0,.917.093,5.251,5.251,0,0,0,1.061-.1,5.539,5.539,0,0,0,1.03-.319l.2-.093h0a5.634,5.634,0,0,0,1.061-.659,5.232,5.232,0,0,0,.927-.832,3.577,3.577,0,0,0,.515-.9c.134-.332.242-.693.361-1.1L19.4,15.9c.054-.178.108-.368.173-.567a.422.422,0,0,1,.167-.239h0a.417.417,0,0,1,.281-.057h0c.088.013.188-.054.294-.173a2.508,2.508,0,0,0,.412-.734,4.164,4.164,0,0,0,.165-.515,3.729,3.729,0,0,0,.085-.515v-.015a2.143,2.143,0,0,0,0-.407.739.739,0,0,0-.07-.258h0c-.049-.085-.09-.131-.129-.144a.258.258,0,0,0-.165,0l-.237.152a1.893,1.893,0,0,1-.667.317.18.18,0,0,1-.224-.121.152.152,0,0,1,0-.036l-.121-1.365a14.488,14.488,0,0,1-10.509.093Zm8.261,2.13a.631.631,0,1,1-.448.184.633.633,0,0,1,.448-.184Zm-5.9,0a.633.633,0,1,1-.631.631.633.633,0,0,1,.631-.631Zm2.042,5.042a.224.224,0,0,1,0-.445h.258a.214.214,0,0,1,.129.041,1.288,1.288,0,0,0,.6.185.994.994,0,0,0,.59-.185.234.234,0,0,1,.126-.039h.376a.224.224,0,1,1,0,.445h-.3a1.391,1.391,0,0,1-.788.224,1.723,1.723,0,0,1-.773-.224h-.209Z" transform="translate(0.001 0.003)" fill="#707070" fill-rule="evenodd"/>
</svg>
