<svg xmlns="http://www.w3.org/2000/svg" width="27.685" height="31.64" viewBox="0 0 27.685 31.64">
  <path id="Icon_awesome-hospital" data-name="Icon awesome-hospital" d="M27.685,30.4V31.64H0V30.4a.742.742,0,0,1,.742-.742H1.978V7.416A1.483,1.483,0,0,1,3.461,5.932H8.9V1.483A1.483,1.483,0,0,1,10.382,0H17.3a1.483,1.483,0,0,1,1.483,1.483V5.932h5.438a1.483,1.483,0,0,1,1.483,1.483V29.663h1.236A.742.742,0,0,1,27.685,30.4ZM19.033,11.865H16.562a.742.742,0,0,0-.742.742v2.472a.742.742,0,0,0,.742.742h2.472a.742.742,0,0,0,.742-.742V12.607A.742.742,0,0,0,19.033,11.865ZM8.652,15.82h2.472a.742.742,0,0,0,.742-.742V12.607a.742.742,0,0,0-.742-.742H8.652a.742.742,0,0,0-.742.742v2.472A.742.742,0,0,0,8.652,15.82Zm6.427,7.91H12.607a.742.742,0,0,0-.742.742v5.191H15.82V24.472A.742.742,0,0,0,15.078,23.73ZM19.033,17.8H16.562a.742.742,0,0,0-.742.742v2.472a.742.742,0,0,0,.742.742h2.472a.742.742,0,0,0,.742-.742V18.539A.742.742,0,0,0,19.033,17.8Zm-7.168.742a.742.742,0,0,0-.742-.742H8.652a.742.742,0,0,0-.742.742v2.472a.742.742,0,0,0,.742.742h2.472a.742.742,0,0,0,.742-.742ZM11.247,5.932h1.607V7.539a.371.371,0,0,0,.371.371H14.46a.371.371,0,0,0,.371-.371V5.932h1.607a.371.371,0,0,0,.371-.371V4.326a.371.371,0,0,0-.371-.371H14.831V2.348a.371.371,0,0,0-.371-.371H13.225a.371.371,0,0,0-.371.371V3.955H11.247a.371.371,0,0,0-.371.371V5.562A.371.371,0,0,0,11.247,5.932Z" fill="#707070"/>
</svg>
