<svg xmlns="http://www.w3.org/2000/svg" width="29.622" height="31.64" viewBox="0 0 29.622 31.64">
  <path id="packing" d="M14.345,19.927,4.4,14.711,1.836,17.767c3.6,1.9,6.927,3.7,10.521,5.6l1.988-3.422ZM17.607,0V5.521h2.575a1.071,1.071,0,0,1,.919.43c.479.721-.178,1.434-.631,1.934-1.287,1.419-4.213,4.583-4.851,5.33a1.053,1.053,0,0,1-1.653,0c-.659-.772-3.747-4.084-4.975-5.467-.425-.479-.953-1.133-.515-1.8a1.071,1.071,0,0,1,.917-.43h2.575V0ZM9.11,11.932l-4.032,2,9.911,5.209,9.929-5.219-4.259-2.214.7-.772,3.862,1.993,2.8-2.632L23.769,7.982a3.239,3.239,0,0,0,.319-1.03L29.4,9.759a.348.348,0,0,1,.093.072.379.379,0,0,1,0,.536l-3.412,3.347,3.3,3.955a.384.384,0,0,1-.046.538.641.641,0,0,1-.077.049l-2.974,1.571v5.891a.384.384,0,0,1-.234.353L15.326,31.515a.381.381,0,0,1-.623-.085L3.955,26.058a.381.381,0,0,1-.209-.34v-5.85L.721,18.282a.641.641,0,0,1-.077-.049A.384.384,0,0,1,.6,17.695l3.219-3.862L.08,10.3a.384.384,0,0,1,.036-.546A.466.466,0,0,1,.19,9.7L5.582,6.654a3.862,3.862,0,0,0,.234,1.089L1.452,10.225,4.5,13.058l3.886-1.923.734.8Zm16.521,2.817-9.924,5.207,1.934,3.43,10.441-5.665Z" transform="translate(0.017)" fill="#707070"/>
</svg>
