<svg xmlns="http://www.w3.org/2000/svg" width="31.018" height="31.64" viewBox="0 0 31.018 31.64">
  <path id="Path_5" data-name="Path 5" d="M11.067,19.831a4.656,4.656,0,0,0,8.886,0c1.607,1.445,6.36,1.735,8.129,2.722a4.591,4.591,0,0,1,1.47,1.246,5.98,5.98,0,0,1,1.1,3.229l.368,3.028a1.621,1.621,0,0,1-1.7,1.586H1.7A1.624,1.624,0,0,1,0,30.056l.368-3.028a6,6,0,0,1,1.1-3.229,4.618,4.618,0,0,1,1.47-1.246c1.772-.986,6.525-1.275,8.132-2.722Zm12.553,4.56h.93a.316.316,0,0,1,.317.317V26.1h1.388a.318.318,0,0,1,.317.317v.93a.318.318,0,0,1-.317.317H24.866v1.388a.318.318,0,0,1-.317.317h-.93a.318.318,0,0,1-.317-.317V27.659H21.915a.318.318,0,0,1-.317-.317v-.93a.318.318,0,0,1,.317-.317H23.3V24.708a.316.316,0,0,1,.317-.317ZM9.955,9.483a1.352,1.352,0,0,0-.693.18.531.531,0,0,0-.2.229A.82.82,0,0,0,9,10.26a3.3,3.3,0,0,0,.654,1.594l.005.01h0l1.375,2.186a11.7,11.7,0,0,0,1.846,2.426,3.772,3.772,0,0,0,2.634,1.061A3.884,3.884,0,0,0,18.3,16.43a12.127,12.127,0,0,0,1.9-2.593l1.548-2.549a2.47,2.47,0,0,0,.327-1.357c-.039-.154-.209-.229-.5-.245-.062,0-.124,0-.188,0s-.142.008-.216.013a.444.444,0,0,1-.118-.008,2.171,2.171,0,0,1-.425-.023l.53-2.346c-3.934.621-6.875-2.3-11.034-.585l.3,2.768a2.355,2.355,0,0,1-.474-.021Zm12.154-.492a1,1,0,0,1,.726.749,3.11,3.11,0,0,1-.376,1.877h0c-.008.015-.015.031-.023.044l-1.568,2.58A12.663,12.663,0,0,1,18.833,17a4.623,4.623,0,0,1-3.319,1.318,4.52,4.52,0,0,1-3.159-1.264,12.243,12.243,0,0,1-1.98-2.583L9,12.282a3.991,3.991,0,0,1-.78-2,1.609,1.609,0,0,1,.134-.716,1.325,1.325,0,0,1,.471-.548,1.679,1.679,0,0,1,.332-.17,34.246,34.246,0,0,1-.064-3.929,5.482,5.482,0,0,1,.17-.891,5.254,5.254,0,0,1,2.323-2.959A6.3,6.3,0,0,1,12.833.465C15.475-.49,18.975.03,20.849,2.057a5.339,5.339,0,0,1,1.344,3.368l-.085,3.566Z" transform="translate(0 -0.002)" fill="#707070" fill-rule="evenodd"/>
</svg>
