<svg xmlns="http://www.w3.org/2000/svg" width="28.312" height="31.64" viewBox="0 0 28.312 31.64">
  <path id="about-me" d="M6.684,5.192C10.485.5,14.866-2.05,18.154,2.119c3.961.209,5.55,6.5,2.39,9.152l-.018.157a1.576,1.576,0,0,1,.366-.07,1.133,1.133,0,0,1,.646.121.917.917,0,0,1,.451.546,1.653,1.653,0,0,1-.021.94c-.147.458-.33.971-.5,1.422a1,1,0,0,1-.306.494.917.917,0,0,1-.67.162l-.136-.015c-.033,1.563-.8,2.282-1.8,3.222l-.046.044c.93,2.318,2.727,2.907,4.514,3.206,6.085,1.03,5.238,4.267,5.238,7.386H20.263a6.644,6.644,0,0,1-10.092.824l-.057-.062a6.459,6.459,0,0,1-.639-.773H-.011c0-3.932-.371-6.461,6.2-7.172,2.014-.216,4.025-.755,4.859-3.528a4.216,4.216,0,0,1-1.8-3.142H9.164a1.177,1.177,0,0,1-.577-.152,1.566,1.566,0,0,1-.633-.773A3.443,3.443,0,0,1,7.7,12.953h0v-.582a3.507,3.507,0,0,1,.031-.494.276.276,0,0,1,.026-.093c.2-.572.515-.757.932-.744l-.273-.18C8.263,9.011,8.7,5.8,6.69,5.194Zm7.787,16.965a1,1,0,0,1,.077-.394.971.971,0,0,1,.224-.332,1.1,1.1,0,0,1,.33-.224,1.03,1.03,0,0,1,.773,0,1.112,1.112,0,0,1,.324.224,1.03,1.03,0,0,1,.219.332.986.986,0,0,1,.07.394,1.03,1.03,0,0,1-.072.391,1.056,1.056,0,0,1-.221.332,1.043,1.043,0,0,1-.324.227.955.955,0,0,1-.384.077.986.986,0,0,1-.718-.3,1.015,1.015,0,0,1-.221-.332,1.03,1.03,0,0,1-.075-.394Zm.574,5.3-.036.142c-.018.118,0,.258.144.258a.33.33,0,0,0,.183-.08,1.718,1.718,0,0,0,.258-.258,4.783,4.783,0,0,0,.322-.415c.113-.16.229-.34.35-.543a.046.046,0,0,1,.062-.015l.415.306a.046.046,0,0,1,0,.062,7.468,7.468,0,0,1-.574.863,3.863,3.863,0,0,1-.595.613h0a1.789,1.789,0,0,1-2.161.214c-.487-.438-.3-1.149-.131-1.687l.538-1.545c.09-.319.309-.909-.258-.909h-.556a.049.049,0,0,1-.046-.046l.162-.567a.044.044,0,0,1,.044-.033l2.969-.093a.046.046,0,0,1,.049.044v.015l-1.131,3.68ZM14.868,19.4a5.607,5.607,0,1,0,0,.005Z" transform="translate(0.015 -0.014)" fill="#707070" fill-rule="evenodd"/>
</svg>
