<svg xmlns="http://www.w3.org/2000/svg" width="31.641" height="31.64" viewBox="0 0 31.641 31.64">
  <path id="Path_6" data-name="Path 6" d="M26.158,3.785l2.271,2.271a1.541,1.541,0,0,1,0,2.173L26.6,10.057a12.158,12.158,0,0,1,1.134,3.026H30.1a1.541,1.541,0,0,1,1.537,1.537v3.211A1.541,1.541,0,0,1,30.1,19.368H27.519a12.152,12.152,0,0,1-1.34,2.94l1.677,1.676a1.541,1.541,0,0,1,0,2.173l-2.271,2.271a1.541,1.541,0,0,1-2.173,0L21.583,26.6a12.133,12.133,0,0,1-3.026,1.135V30.1A1.541,1.541,0,0,1,17.02,31.64H13.809A1.541,1.541,0,0,1,12.272,30.1V27.518a12.156,12.156,0,0,1-2.94-1.34L7.656,27.855a1.542,1.542,0,0,1-2.174,0L3.212,25.584a1.541,1.541,0,0,1,0-2.173L5.04,21.583a12.122,12.122,0,0,1-1.134-3.026H1.537A1.541,1.541,0,0,1,0,17.02V13.809a1.541,1.541,0,0,1,1.537-1.537H4.122a12.172,12.172,0,0,1,1.34-2.94L3.785,7.656a1.541,1.541,0,0,1,0-2.173L6.056,3.212a1.541,1.541,0,0,1,2.173,0L10.057,5.04a12.136,12.136,0,0,1,3.026-1.135V1.537A1.541,1.541,0,0,1,14.62,0h3.211a1.541,1.541,0,0,1,1.537,1.537V4.121a12.164,12.164,0,0,1,2.941,1.34l1.676-1.676a1.542,1.542,0,0,1,2.174,0ZM15.82,9.507A6.313,6.313,0,1,1,9.507,15.82,6.314,6.314,0,0,1,15.82,9.507Z" fill="#707070" fill-rule="evenodd"/>
</svg>
