<svg xmlns="http://www.w3.org/2000/svg" width="35.894" height="31.64" viewBox="0 0 35.894 31.64">
  <path id="cash-flow" d="M.6,12.982a.584.584,0,0,0-.5.234c-.251.368.038.736.275,1,.675.771,2.6,3.316,2.962,3.745a.584.584,0,0,0,.917,0c.356-.412,2.238-2.837,2.959-3.617.251-.292.625-.672.359-1.075a.6.6,0,0,0-.5-.242l-1.814-.015A13,13,0,0,1,29.989,10.65l2.574-1.069A15.775,15.775,0,0,0,2.417,13L.6,12.982ZM16.455,8.959V7.437h2.559v1.49a21.008,21.008,0,0,1,3.479.482V12.14q-.92-.07-2.071-.114t-2.092-.044a6.427,6.427,0,0,0-1,.07c-1.344.216-1.358,1.981.38,1.981h1.309a5.168,5.168,0,0,1,2.337.47,3.269,3.269,0,0,1,1.4,1.274,3.535,3.535,0,0,1,.473,1.832v.584a4.235,4.235,0,0,1-.663,2.565,3.228,3.228,0,0,1-1.881,1.192,7.943,7.943,0,0,1-1.662.292v1.651H16.455V22.231a18.443,18.443,0,0,1-3.485-.488V19.017c1.516.12,3.065.161,4.584.161a5.51,5.51,0,0,0,1.1-.091c1.356-.272,1.136-1.8-.161-1.8h-1.06a5.8,5.8,0,0,1-3.523-.9,3.546,3.546,0,0,1-1.2-3.027v-.584A3.4,3.4,0,0,1,14.03,9.85a4.674,4.674,0,0,1,2.425-.9Zm17.119,9.083A15.775,15.775,0,0,1,3,20.644l2.629-.876a13,13,0,0,0,25.1-1.668l-1.9.041a.584.584,0,0,1-.494-.225c-.292-.394.085-.8.327-1.084.7-.8,2.507-3.284,2.848-3.707a.585.585,0,0,1,.917-.018c.377.418,2.378,2.9,3.076,3.655.242.26.543.619.292.993a.584.584,0,0,1-.5.251l-1.738.035Z" transform="translate(0.002 0.183)" fill="#707070"/>
</svg>
