<svg xmlns="http://www.w3.org/2000/svg" width="28.421" height="21.284" viewBox="0 0 28.421 21.284">
  <path id="Path_14" data-name="Path 14" d="M2.352,7.917C-.188,6.627.1,5.188,2.655,5.338l.571,1.071L4.4,2.748C4.866,1.307,5.636,0,7.147,0H22.2c1.51,0,2.38,1.281,2.746,2.746l.884,3.55.509-.958c2.623-.153,2.857,1.372.081,2.688l.451.692c1.825,1.876,1.654,5.193,1.369,9.826v1.883a.861.861,0,0,1-.858.858H23.724a.861.861,0,0,1-.858-.858v-1.05H5.56v1.05a.861.861,0,0,1-.858.858H1.04a.861.861,0,0,1-.858-.858V18.088a1.263,1.263,0,0,1,.009-.134c-.278-3.555-.668-8.2,2.16-10.036Zm4.675,5.66-3.252-.409c-.768-.086-.974.238-.712.9l.352.853a1.234,1.234,0,0,0,.439.49,1.488,1.488,0,0,0,.729.2l2.9.023c.7,0,1-.282.784-.925a1.569,1.569,0,0,0-1.24-1.133Zm5.551-1.367h3.331a.36.36,0,0,1,.359.359h0a.36.36,0,0,1-.359.359H12.578a.36.36,0,0,1-.359-.359h0a.357.357,0,0,1,.359-.359Zm8.23,4.709h3.331a.36.36,0,0,1,.359.359h0a.36.36,0,0,1-.359.359H20.807a.36.36,0,0,1-.359-.359h0a.359.359,0,0,1,.359-.359Zm.588-3.342,3.252-.409c.768-.086.974.238.712.9l-.352.853a1.234,1.234,0,0,1-.439.49,1.488,1.488,0,0,1-.729.2l-2.9.023c-.7,0-1-.282-.784-.925a1.569,1.569,0,0,1,1.24-1.133ZM4.258,16.92H7.588a.36.36,0,0,1,.359.359h0a.36.36,0,0,1-.359.359H4.258a.36.36,0,0,1-.359-.359h0a.36.36,0,0,1,.359-.359Zm.19-9.7H24.529l-.886-3.682C23.4,2.412,22.7,1.441,21.55,1.441H7.646c-1.15,0-1.739,1-2.093,2.093L4.447,7.217v0Z" transform="translate(0.001)" fill="#707070" fill-rule="evenodd"/>
</svg>
